<?xml version="1.0" encoding="utf-8"?>
<!-- Generator: Adobe Illustrator 15.0.1, SVG Export Plug-In . SVG Version: 6.00 Build 0)  -->
<!DOCTYPE svg PUBLIC "-//W3C//DTD SVG 1.1//EN" "http://www.w3.org/Graphics/SVG/1.1/DTD/svg11.dtd">
<svg version="1.1" id="Слой_1" xmlns="http://www.w3.org/2000/svg" xmlns:xlink="http://www.w3.org/1999/xlink" x="0px" y="0px"
	 width="130px" height="130px" viewBox="0 0 130 130" enable-background="new 0 0 130 130" xml:space="preserve">
<path fill="#A3BBC8" d="M65.5,2C100.57,2,129,30.43,129,65.5S100.57,129,65.5,129S2,100.57,2,65.5S30.43,2,65.5,2z"/>
<path fill="#A3BBC8" d="M64.5,15.5c27.063,0,49,21.938,49,49c0,27.062-21.938,49-49,49c-27.062,0-49-21.938-49-49
	C15.5,37.438,37.438,15.5,64.5,15.5z"/>
<path fill="#FFFFFF" d="M74.184,67.74L58.14,77.536c-0.501,0.307-1.081,0.461-1.663,0.461c-0.479,0-0.96-0.105-1.399-0.316
	c-0.972-0.471-1.579-1.388-1.579-2.386V55.7c0-0.999,0.607-1.917,1.579-2.387c0.971-0.468,2.148-0.414,3.062,0.144l16.043,9.798
	c0.822,0.502,1.316,1.343,1.316,2.242S75.006,67.237,74.184,67.74z"/>
</svg>
